<mxfile host="app.diagrams.net" agent="Mozilla/5.0 (Macintosh; Intel Mac OS X 10.15; rv:127.0) Gecko/20100101 Firefox/127.0" version="24.7.17">
  <diagram name="Page-1" id="gtvftUSgISxj2XFJo2aM">
    <mxGraphModel dx="1121" dy="751" grid="1" gridSize="10" guides="1" tooltips="1" connect="1" arrows="1" fold="1" page="1" pageScale="1" pageWidth="850" pageHeight="1100" math="0" shadow="0">
      <root>
        <mxCell id="0" />
        <mxCell id="1" parent="0" />
        <mxCell id="CPuX9Urkzcby9qmbXAsg-2" value="&lt;div&gt;Home Server - Fedora&lt;br&gt;&lt;/div&gt;" style="rounded=0;whiteSpace=wrap;html=1;verticalAlign=top;align=left;fillColor=#ffcc99;strokeColor=#36393d;" vertex="1" parent="1">
          <mxGeometry x="140" y="130" width="665" height="550" as="geometry" />
        </mxCell>
        <mxCell id="CPuX9Urkzcby9qmbXAsg-26" value="Podman/Quadlet Units" style="rounded=1;whiteSpace=wrap;html=1;fillColor=#dae8fc;strokeColor=#6c8ebf;perimeterSpacing=0;verticalAlign=top;align=left;spacingLeft=39;" vertex="1" parent="1">
          <mxGeometry x="280" y="160" width="510" height="400" as="geometry" />
        </mxCell>
        <mxCell id="CPuX9Urkzcby9qmbXAsg-3" value="Heimdall" style="rounded=1;whiteSpace=wrap;html=1;fillColor=#d5e8d4;strokeColor=#82b366;" vertex="1" parent="1">
          <mxGeometry x="530" y="185" width="120" height="40" as="geometry" />
        </mxCell>
        <mxCell id="CPuX9Urkzcby9qmbXAsg-4" value="Grocy" style="rounded=1;whiteSpace=wrap;html=1;fillColor=#d5e8d4;strokeColor=#82b366;" vertex="1" parent="1">
          <mxGeometry x="530" y="235" width="120" height="40" as="geometry" />
        </mxCell>
        <mxCell id="CPuX9Urkzcby9qmbXAsg-5" value="Jellyfin" style="rounded=1;whiteSpace=wrap;html=1;fillColor=#d5e8d4;strokeColor=#82b366;" vertex="1" parent="1">
          <mxGeometry x="530" y="285" width="120" height="40" as="geometry" />
        </mxCell>
        <mxCell id="CPuX9Urkzcby9qmbXAsg-29" style="edgeStyle=orthogonalEdgeStyle;rounded=0;orthogonalLoop=1;jettySize=auto;html=1;exitX=1;exitY=0.5;exitDx=0;exitDy=0;entryX=0;entryY=0.5;entryDx=0;entryDy=0;" edge="1" parent="1" source="CPuX9Urkzcby9qmbXAsg-6" target="CPuX9Urkzcby9qmbXAsg-7">
          <mxGeometry relative="1" as="geometry" />
        </mxCell>
        <mxCell id="CPuX9Urkzcby9qmbXAsg-6" value="Gitea" style="rounded=1;whiteSpace=wrap;html=1;fillColor=#d5e8d4;strokeColor=#82b366;" vertex="1" parent="1">
          <mxGeometry x="530" y="335" width="120" height="40" as="geometry" />
        </mxCell>
        <mxCell id="CPuX9Urkzcby9qmbXAsg-7" value="Gitea_db" style="rounded=1;whiteSpace=wrap;html=1;fillColor=#d5e8d4;strokeColor=#82b366;" vertex="1" parent="1">
          <mxGeometry x="690" y="335" width="90" height="40" as="geometry" />
        </mxCell>
        <mxCell id="CPuX9Urkzcby9qmbXAsg-8" value="Mosquitto (MQTT)" style="rounded=1;whiteSpace=wrap;html=1;fillColor=#d5e8d4;strokeColor=#82b366;" vertex="1" parent="1">
          <mxGeometry x="530" y="385" width="120" height="40" as="geometry" />
        </mxCell>
        <mxCell id="CPuX9Urkzcby9qmbXAsg-9" value="Home assistant" style="rounded=1;whiteSpace=wrap;html=1;fillColor=#d5e8d4;strokeColor=#82b366;" vertex="1" parent="1">
          <mxGeometry x="530" y="435" width="120" height="40" as="geometry" />
        </mxCell>
        <mxCell id="CPuX9Urkzcby9qmbXAsg-45" style="edgeStyle=orthogonalEdgeStyle;rounded=0;orthogonalLoop=1;jettySize=auto;html=1;exitX=1;exitY=0.5;exitDx=0;exitDy=0;entryX=1;entryY=0.5;entryDx=0;entryDy=0;curved=1;" edge="1" parent="1" source="CPuX9Urkzcby9qmbXAsg-10" target="CPuX9Urkzcby9qmbXAsg-8">
          <mxGeometry relative="1" as="geometry" />
        </mxCell>
        <mxCell id="CPuX9Urkzcby9qmbXAsg-10" value="zigbee2mqtt" style="rounded=1;whiteSpace=wrap;html=1;fillColor=#d5e8d4;strokeColor=#82b366;" vertex="1" parent="1">
          <mxGeometry x="530" y="485" width="120" height="40" as="geometry" />
        </mxCell>
        <mxCell id="CPuX9Urkzcby9qmbXAsg-15" style="edgeStyle=entityRelationEdgeStyle;rounded=1;orthogonalLoop=1;jettySize=auto;html=1;entryX=0;entryY=0.5;entryDx=0;entryDy=0;" edge="1" parent="1" source="CPuX9Urkzcby9qmbXAsg-11" target="CPuX9Urkzcby9qmbXAsg-3">
          <mxGeometry relative="1" as="geometry" />
        </mxCell>
        <mxCell id="CPuX9Urkzcby9qmbXAsg-11" value="caddy" style="rounded=1;whiteSpace=wrap;html=1;fillColor=#d5e8d4;strokeColor=#82b366;" vertex="1" parent="1">
          <mxGeometry x="330" y="210" width="110" height="40" as="geometry" />
        </mxCell>
        <mxCell id="CPuX9Urkzcby9qmbXAsg-16" value="" style="endArrow=classic;html=1;rounded=0;entryX=0;entryY=0.5;entryDx=0;entryDy=0;exitX=1;exitY=0.5;exitDx=0;exitDy=0;edgeStyle=entityRelationEdgeStyle;" edge="1" parent="1" source="CPuX9Urkzcby9qmbXAsg-17" target="CPuX9Urkzcby9qmbXAsg-11">
          <mxGeometry width="50" height="50" relative="1" as="geometry">
            <mxPoint x="80" y="235" as="sourcePoint" />
            <mxPoint x="450" y="385" as="targetPoint" />
          </mxGeometry>
        </mxCell>
        <mxCell id="CPuX9Urkzcby9qmbXAsg-17" value="80/443" style="ellipse;whiteSpace=wrap;html=1;fillColor=#e1d5e7;strokeColor=#9673a6;" vertex="1" parent="1">
          <mxGeometry x="50" y="235" width="60" height="60" as="geometry" />
        </mxCell>
        <mxCell id="CPuX9Urkzcby9qmbXAsg-18" value="LetsEncrypt&lt;br&gt;+&lt;br&gt;Cloudflare" style="ellipse;shape=cloud;whiteSpace=wrap;html=1;" vertex="1" parent="1">
          <mxGeometry x="20" y="145" width="120" height="80" as="geometry" />
        </mxCell>
        <mxCell id="CPuX9Urkzcby9qmbXAsg-22" value="&lt;div&gt;Router&lt;br&gt;Local dns overrides&lt;br&gt;&lt;/div&gt;" style="rounded=0;whiteSpace=wrap;html=1;align=left;verticalAlign=top;fillColor=#ffcc99;strokeColor=#36393d;" vertex="1" parent="1">
          <mxGeometry x="140" y="50" width="120" height="60" as="geometry" />
        </mxCell>
        <mxCell id="CPuX9Urkzcby9qmbXAsg-24" value="" style="endArrow=classic;html=1;rounded=0;exitX=0;exitY=0.25;exitDx=0;exitDy=0;entryX=0.88;entryY=0.25;entryDx=0;entryDy=0;entryPerimeter=0;edgeStyle=entityRelationEdgeStyle;" edge="1" parent="1" source="CPuX9Urkzcby9qmbXAsg-11" target="CPuX9Urkzcby9qmbXAsg-18">
          <mxGeometry width="50" height="50" relative="1" as="geometry">
            <mxPoint x="400" y="360" as="sourcePoint" />
            <mxPoint x="450" y="310" as="targetPoint" />
          </mxGeometry>
        </mxCell>
        <mxCell id="CPuX9Urkzcby9qmbXAsg-25" value="DNS-01 &lt;br&gt;Challenge" style="edgeLabel;html=1;align=center;verticalAlign=middle;resizable=0;points=[];" vertex="1" connectable="0" parent="CPuX9Urkzcby9qmbXAsg-24">
          <mxGeometry x="0.3163" relative="1" as="geometry">
            <mxPoint as="offset" />
          </mxGeometry>
        </mxCell>
        <mxCell id="CPuX9Urkzcby9qmbXAsg-27" value="Container volumes &amp;amp; env files&lt;br&gt;$HOME/volumes/..." style="rounded=1;whiteSpace=wrap;html=1;fillColor=#dae8fc;strokeColor=#6c8ebf;perimeterSpacing=0;verticalAlign=top;align=left;spacingLeft=39;" vertex="1" parent="1">
          <mxGeometry x="280" y="590" width="510" height="70" as="geometry" />
        </mxCell>
        <mxCell id="CPuX9Urkzcby9qmbXAsg-32" style="edgeStyle=entityRelationEdgeStyle;rounded=1;orthogonalLoop=1;jettySize=auto;html=1;exitX=1;exitY=0.5;exitDx=0;exitDy=0;entryX=0;entryY=0.5;entryDx=0;entryDy=0;" edge="1" parent="1" source="CPuX9Urkzcby9qmbXAsg-30" target="CPuX9Urkzcby9qmbXAsg-4">
          <mxGeometry relative="1" as="geometry" />
        </mxCell>
        <mxCell id="CPuX9Urkzcby9qmbXAsg-30" value="9283" style="ellipse;whiteSpace=wrap;html=1;fillColor=#e1d5e7;strokeColor=#9673a6;" vertex="1" parent="1">
          <mxGeometry x="50" y="306" width="60" height="60" as="geometry" />
        </mxCell>
        <mxCell id="CPuX9Urkzcby9qmbXAsg-33" value="8096,.." style="ellipse;whiteSpace=wrap;html=1;fillColor=#e1d5e7;strokeColor=#9673a6;" vertex="1" parent="1">
          <mxGeometry x="50" y="377" width="60" height="60" as="geometry" />
        </mxCell>
        <mxCell id="CPuX9Urkzcby9qmbXAsg-34" style="edgeStyle=entityRelationEdgeStyle;rounded=1;orthogonalLoop=1;jettySize=auto;html=1;exitX=1;exitY=0.5;exitDx=0;exitDy=0;entryX=0;entryY=0.5;entryDx=0;entryDy=0;" edge="1" parent="1" source="CPuX9Urkzcby9qmbXAsg-33" target="CPuX9Urkzcby9qmbXAsg-5">
          <mxGeometry relative="1" as="geometry">
            <mxPoint x="121" y="434" as="sourcePoint" />
            <mxPoint x="540" y="265" as="targetPoint" />
          </mxGeometry>
        </mxCell>
        <mxCell id="CPuX9Urkzcby9qmbXAsg-35" style="edgeStyle=entityRelationEdgeStyle;rounded=1;orthogonalLoop=1;jettySize=auto;html=1;exitX=1;exitY=0.5;exitDx=0;exitDy=0;entryX=0;entryY=0.5;entryDx=0;entryDy=0;" edge="1" source="CPuX9Urkzcby9qmbXAsg-36" parent="1" target="CPuX9Urkzcby9qmbXAsg-6">
          <mxGeometry relative="1" as="geometry">
            <mxPoint x="121" y="504" as="sourcePoint" />
            <mxPoint x="530" y="375" as="targetPoint" />
          </mxGeometry>
        </mxCell>
        <mxCell id="CPuX9Urkzcby9qmbXAsg-36" value="3000, 222" style="ellipse;whiteSpace=wrap;html=1;fillColor=#e1d5e7;strokeColor=#9673a6;" vertex="1" parent="1">
          <mxGeometry x="50" y="449" width="60" height="60" as="geometry" />
        </mxCell>
        <mxCell id="CPuX9Urkzcby9qmbXAsg-37" style="edgeStyle=entityRelationEdgeStyle;rounded=1;orthogonalLoop=1;jettySize=auto;html=1;exitX=1;exitY=0.5;exitDx=0;exitDy=0;entryX=0;entryY=0.5;entryDx=0;entryDy=0;" edge="1" source="CPuX9Urkzcby9qmbXAsg-38" parent="1" target="CPuX9Urkzcby9qmbXAsg-8">
          <mxGeometry relative="1" as="geometry">
            <mxPoint x="131" y="514" as="sourcePoint" />
            <mxPoint x="540" y="365" as="targetPoint" />
          </mxGeometry>
        </mxCell>
        <mxCell id="CPuX9Urkzcby9qmbXAsg-38" value="1883" style="ellipse;whiteSpace=wrap;html=1;fillColor=#e1d5e7;strokeColor=#9673a6;" vertex="1" parent="1">
          <mxGeometry x="50" y="520" width="60" height="60" as="geometry" />
        </mxCell>
        <mxCell id="CPuX9Urkzcby9qmbXAsg-40" value="8123" style="ellipse;whiteSpace=wrap;html=1;fillColor=#e1d5e7;strokeColor=#9673a6;" vertex="1" parent="1">
          <mxGeometry x="50" y="591" width="60" height="60" as="geometry" />
        </mxCell>
        <mxCell id="CPuX9Urkzcby9qmbXAsg-41" style="edgeStyle=entityRelationEdgeStyle;rounded=1;orthogonalLoop=1;jettySize=auto;html=1;exitX=1;exitY=0.5;exitDx=0;exitDy=0;entryX=0;entryY=0.5;entryDx=0;entryDy=0;" edge="1" source="CPuX9Urkzcby9qmbXAsg-40" parent="1" target="CPuX9Urkzcby9qmbXAsg-9">
          <mxGeometry relative="1" as="geometry">
            <mxPoint x="131" y="584" as="sourcePoint" />
            <mxPoint x="530" y="475" as="targetPoint" />
          </mxGeometry>
        </mxCell>
        <mxCell id="CPuX9Urkzcby9qmbXAsg-42" value="8002" style="ellipse;whiteSpace=wrap;html=1;fillColor=#e1d5e7;strokeColor=#9673a6;" vertex="1" parent="1">
          <mxGeometry x="50" y="662" width="60" height="60" as="geometry" />
        </mxCell>
        <mxCell id="CPuX9Urkzcby9qmbXAsg-43" style="edgeStyle=entityRelationEdgeStyle;rounded=1;orthogonalLoop=1;jettySize=auto;html=1;exitX=1;exitY=0.5;exitDx=0;exitDy=0;entryX=0;entryY=0.5;entryDx=0;entryDy=0;" edge="1" source="CPuX9Urkzcby9qmbXAsg-42" parent="1" target="CPuX9Urkzcby9qmbXAsg-10">
          <mxGeometry relative="1" as="geometry">
            <mxPoint x="131" y="659" as="sourcePoint" />
            <mxPoint x="530" y="550" as="targetPoint" />
          </mxGeometry>
        </mxCell>
        <mxCell id="CPuX9Urkzcby9qmbXAsg-44" value="" style="endArrow=classic;html=1;rounded=0;" edge="1" parent="1">
          <mxGeometry width="50" height="50" relative="1" as="geometry">
            <mxPoint x="330" y="480" as="sourcePoint" />
            <mxPoint x="380" y="430" as="targetPoint" />
          </mxGeometry>
        </mxCell>
        <mxCell id="CPuX9Urkzcby9qmbXAsg-46" style="edgeStyle=orthogonalEdgeStyle;rounded=0;orthogonalLoop=1;jettySize=auto;html=1;exitX=1;exitY=0.75;exitDx=0;exitDy=0;entryX=1;entryY=0.25;entryDx=0;entryDy=0;curved=1;" edge="1" parent="1" source="CPuX9Urkzcby9qmbXAsg-9" target="CPuX9Urkzcby9qmbXAsg-8">
          <mxGeometry relative="1" as="geometry">
            <mxPoint x="660" y="515" as="sourcePoint" />
            <mxPoint x="660" y="415" as="targetPoint" />
          </mxGeometry>
        </mxCell>
      </root>
    </mxGraphModel>
  </diagram>
</mxfile>
